<svg width="120" height="36" viewBox="0 0 120 36" fill="none" xmlns="http://www.w3.org/2000/svg">
<g clip-path="url(#clip0)">
<path d="M18.6448 25.8569V29.5176C18.6448 32.6873 16.0223 35.2766 12.812 35.2766H11.3651C10.5512 35.2766 9.91815 34.6516 9.91815 33.848C9.91815 33.0444 10.5512 32.4194 11.3651 32.4194H12.812C14.4397 32.4194 15.7058 31.1248 15.7058 29.5176V26.6605C16.7909 26.6159 17.7857 26.348 18.6448 25.8569Z" stroke="url(#paint0_linear)" stroke-miterlimit="10"/>
<path d="M18.6448 20.8571V15.0981C18.6448 17.241 17.4692 19.0714 15.751 20.0981V23.7589C17.3335 23.7589 18.6448 22.4642 18.6448 20.8571Z" stroke="url(#paint1_linear)" stroke-miterlimit="10"/>
<path d="M15.7059 15.0981C15.7059 16.7053 14.3946 17.9999 12.8121 17.9999C11.1843 17.9999 9.91828 16.7053 9.91828 15.1428V9.33921C9.91828 6.16957 7.29577 3.58029 4.08545 3.58029H2.59333C1.77944 3.58029 1.14642 4.20529 1.14642 5.00886C1.14642 5.81243 1.77944 6.43743 2.59333 6.43743H4.04023C5.668 6.43743 6.93404 7.73207 6.93404 9.29457V15.0535C6.93404 18.2231 9.55655 20.8124 12.7669 20.8124C15.9772 20.8124 18.5997 18.2231 18.5997 15.0535V20.8124C18.5997 22.4196 17.2884 23.7142 15.7059 23.7142H9.87306C6.66274 23.7142 4.04023 26.3035 4.04023 29.4731V30.9017C4.04023 31.7053 4.67325 32.3303 5.48714 32.3303C6.30102 32.3303 6.93404 31.7053 6.93404 30.9017V29.5178C6.93404 27.9106 8.2453 26.616 9.82785 26.616H15.6607C18.871 26.616 21.4935 24.0267 21.4935 20.8571V15.0981V33.8035C21.4935 34.6071 22.1265 35.2321 22.9404 35.2321C23.7543 35.2321 24.3873 34.6071 24.3873 33.8035V15.0981V28.0446C24.3873 28.8481 25.0203 29.4731 25.8342 29.4731C26.6481 29.4731 27.2811 28.8481 27.2811 28.0446V15.0981V17.9553C27.2811 22.7321 31.2149 26.5714 36.0078 26.5714H38.9016C40.5293 26.5714 41.8406 27.866 41.8406 29.4731V30.9017C41.8406 31.7053 42.4736 32.3303 43.2875 32.3303C44.1014 32.3303 44.7344 31.7053 44.7344 30.9017V29.5178C44.7344 26.3481 42.1119 23.7589 38.9016 23.7589H36.0078C32.7974 23.7589 30.1749 21.1696 30.1749 17.9999V15.1428V17.9999C30.1749 21.1696 32.7974 23.7589 36.0078 23.7589H41.8406C45.0509 23.7589 47.6734 21.1696 47.6734 17.9999C47.6734 14.8303 45.0509 12.241 41.8406 12.241H40.3937C39.5798 12.241 38.9468 12.866 38.9468 13.6696C38.9468 14.4731 39.5798 15.0981 40.3937 15.0981H41.8406C43.4684 15.0981 44.7796 16.3928 44.7796 17.9553C44.7796 19.5624 43.4684 20.8124 41.8858 20.8124H36.1434C34.5156 20.8124 33.2496 19.5178 33.2496 17.9553V15.0981V9.33921C33.2496 4.56243 29.3158 0.723145 24.523 0.723145C19.6849 0.723145 15.7963 4.60707 15.7963 9.33921V15.0981H15.7059Z" stroke="url(#paint2_linear)" stroke-miterlimit="10"/>
<path d="M33.2042 26.1249C32.1191 25.7678 31.1243 25.1428 30.3104 24.4285V29.5178C30.3104 32.6874 32.9329 35.2767 36.1433 35.2767H37.5902C38.404 35.2767 39.0371 34.6517 39.0371 33.8481C39.0371 33.0445 38.404 32.4195 37.5902 32.4195H36.1433C34.5155 32.4195 33.2042 31.1249 33.2042 29.5178V26.1249Z" stroke="url(#paint3_linear)" stroke-miterlimit="10"/>
<path d="M104.419 9.96432C104.419 9.60718 104.69 9.29468 105.097 9.29468C105.459 9.29468 105.776 9.56253 105.776 9.96432V10.3215C105.776 10.6786 105.459 10.9911 105.097 10.9911C104.736 10.9911 104.419 10.7232 104.419 10.3215V9.96432ZM104.555 14.25C104.555 13.9375 104.781 13.7143 105.097 13.7143C105.414 13.7143 105.64 13.9375 105.64 14.25V24.4733C105.64 24.7858 105.414 25.009 105.097 25.009C104.781 25.009 104.555 24.7858 104.555 24.4733V14.25ZM110.071 21.7054C110.071 19.3393 112.106 18.0447 115 18.0447C116.582 18.0447 117.667 18.2233 118.752 18.5358V18.0447C118.752 15.8125 117.351 14.6518 115.045 14.6518C113.824 14.6518 112.784 14.9643 111.834 15.4107C111.744 15.4554 111.654 15.4554 111.608 15.4554C111.337 15.4554 111.111 15.2322 111.111 14.9643C111.111 14.6965 111.292 14.5179 111.428 14.4732C112.558 13.9822 113.688 13.625 115.135 13.625C116.673 13.625 117.893 14.0268 118.707 14.8304C119.476 15.5893 119.838 16.6161 119.838 18V24.4733C119.838 24.7858 119.612 25.009 119.295 25.009C118.979 25.009 118.752 24.7858 118.752 24.4733V23.0893C117.984 24.1607 116.582 25.2322 114.412 25.2322C112.332 25.1875 110.071 24.0268 110.071 21.7054ZM118.798 20.7679V19.5179C117.848 19.2947 116.582 19.0268 114.954 19.0268C112.558 19.0268 111.247 20.0982 111.247 21.6161V21.6608C111.247 23.2679 112.784 24.2054 114.502 24.2054C116.808 24.2054 118.798 22.7768 118.798 20.7679Z" fill="url(#paint4_linear)"/>
<path d="M50.6575 19.2499C50.6575 15.9464 53.1443 13.2231 56.4903 13.2231C58.4346 13.2231 59.6554 13.8928 60.7858 14.8303C60.8762 14.9196 60.9667 15.0089 60.9667 15.1874C60.9667 15.4106 60.7406 15.6339 60.5145 15.6339C60.3789 15.6339 60.2884 15.5892 60.198 15.4999C59.2485 14.6071 58.1181 13.9821 56.4903 13.9821C53.6869 13.9821 51.5618 16.2589 51.5618 19.1606V19.2053C51.5618 22.1071 53.7321 24.4285 56.4903 24.4285C58.0728 24.4285 59.2032 23.8481 60.2884 22.8214C60.3336 22.7767 60.4693 22.6874 60.6049 22.6874C60.831 22.6874 61.0119 22.866 61.0119 23.0892C61.0119 23.2231 60.9667 23.3124 60.8762 23.4017C59.7006 24.4731 58.3894 25.1874 56.4451 25.1874C53.1443 25.1874 50.6575 22.5535 50.6575 19.2499Z" fill="#E83A8D"/>
<path d="M63.6344 24.4286L68.6534 13.7143C68.789 13.4464 68.9247 13.3125 69.2412 13.3125H69.2864C69.6029 13.3125 69.7386 13.4911 69.8742 13.7143L74.8479 24.3839C74.8932 24.4732 74.8932 24.5625 74.8932 24.6518C74.8932 24.875 74.7123 25.0536 74.4862 25.0536C74.3054 25.0536 74.1245 24.9196 74.0341 24.7411L72.6776 21.75H65.7596L64.4031 24.7411C64.3127 24.9196 64.177 25.0536 63.9962 25.0536C63.7701 25.0536 63.5892 24.875 63.5892 24.6964C63.544 24.6518 63.5892 24.5179 63.6344 24.4286ZM72.2706 20.9911L69.196 14.2946L66.1213 20.9911H72.2706Z" fill="#E83A8D"/>
<path d="M77.6965 23.5357C77.6061 23.491 77.5156 23.3571 77.5156 23.2232C77.5156 23 77.6965 22.7767 77.9678 22.7767C78.1034 22.7767 78.1939 22.8214 78.2391 22.866C79.4147 23.8928 80.5903 24.3839 82.1729 24.3839C83.9363 24.3839 85.1119 23.4017 85.1119 22.1071V22.0625C85.1119 20.8571 84.4789 20.1428 81.8111 19.6071C79.0077 19.0267 77.8774 18.0892 77.8774 16.3482V16.3035C77.8774 14.6071 79.4599 13.2678 81.6303 13.2678C83.2128 13.2678 84.298 13.6696 85.338 14.4732C85.4284 14.5178 85.5188 14.6517 85.5188 14.8303C85.5188 15.0535 85.338 15.2767 85.0667 15.2767C84.9762 15.2767 84.8858 15.2321 84.7954 15.1875C83.7554 14.4285 82.7607 14.116 81.585 14.116C79.8668 14.116 78.7365 15.0982 78.7365 16.3035V16.3482C78.7365 17.5535 79.3695 18.3125 82.1276 18.8928C84.8406 19.4285 85.971 20.4107 85.971 22.0625V22.1071C85.971 23.9821 84.3432 25.2767 82.0824 25.2767C80.3642 25.1428 79.0078 24.6071 77.6965 23.5357Z" fill="#E83A8D"/>
<path d="M88.7291 24.4286L93.7481 13.7143C93.8837 13.4464 94.0193 13.3125 94.3359 13.3125H94.3811C94.6976 13.3125 94.8332 13.4911 94.9689 13.7143L99.9426 24.3839C99.9878 24.4732 99.9878 24.5625 99.9878 24.6518C99.9878 24.875 99.807 25.0536 99.5809 25.0536C99.4 25.0536 99.2192 24.9196 99.1287 24.7411L97.7722 21.75H90.8542L89.4978 24.7411C89.4073 24.9196 89.2717 25.0536 89.0908 25.0536C88.8648 25.0536 88.6839 24.875 88.6839 24.6964C88.6387 24.6518 88.6839 24.5179 88.7291 24.4286ZM97.3653 20.9911L94.2906 14.2946L91.216 20.9911H97.3653Z" fill="#E83A8D"/>
<path d="M101.57 24.2501C101.57 23.8037 101.932 23.4465 102.384 23.4465C102.791 23.4465 103.198 23.8037 103.198 24.2501C103.198 24.6965 102.836 25.0537 102.384 25.0537C101.932 25.0537 101.57 24.6519 101.57 24.2501Z" fill="#E83A8D"/>
</g>
<defs>
<linearGradient id="paint0_linear" x1="9.66521" y1="30.4776" x2="18.8641" y2="30.4776" gradientUnits="userSpaceOnUse">
<stop stop-color="#EC6430"/>
<stop offset="0.1023" stop-color="#EC6333"/>
<stop offset="0.227" stop-color="#EC603D"/>
<stop offset="0.3633" stop-color="#EB5A4B"/>
<stop offset="0.5071" stop-color="#EA515C"/>
<stop offset="0.5185" stop-color="#EA505D"/>
<stop offset="0.607" stop-color="#EA4F5F"/>
<stop offset="0.7009" stop-color="#EA4C64"/>
<stop offset="0.7965" stop-color="#E9476C"/>
<stop offset="0.9851" stop-color="#E83A8D"/>
</linearGradient>
<linearGradient id="paint1_linear" x1="15.497" y1="19.5465" x2="18.8641" y2="19.5465" gradientUnits="userSpaceOnUse">
<stop stop-color="#EC6430"/>
<stop offset="0.1023" stop-color="#EC6333"/>
<stop offset="0.227" stop-color="#EC603D"/>
<stop offset="0.3633" stop-color="#EB5A4B"/>
<stop offset="0.5071" stop-color="#EA515C"/>
<stop offset="0.5185" stop-color="#EA505D"/>
<stop offset="0.607" stop-color="#EA4F5F"/>
<stop offset="0.7009" stop-color="#EA4C64"/>
<stop offset="0.7965" stop-color="#E9476C"/>
<stop offset="0.9851" stop-color="#E83A8D"/>
</linearGradient>
<linearGradient id="paint2_linear" x1="0.920345" y1="17.995" x2="48.0207" y2="17.995" gradientUnits="userSpaceOnUse">
<stop stop-color="#EC6430"/>
<stop offset="0.1023" stop-color="#EC6333"/>
<stop offset="0.227" stop-color="#EC603D"/>
<stop offset="0.3633" stop-color="#EB5A4B"/>
<stop offset="0.5071" stop-color="#EA515C"/>
<stop offset="0.5185" stop-color="#EA505D"/>
<stop offset="0.607" stop-color="#EA4F5F"/>
<stop offset="0.7009" stop-color="#EA4C64"/>
<stop offset="0.7965" stop-color="#E9476C"/>
<stop offset="0.9851" stop-color="#E83A8D"/>
</linearGradient>
<linearGradient id="paint3_linear" x1="30.0749" y1="29.7034" x2="39.2715" y2="29.7034" gradientUnits="userSpaceOnUse">
<stop stop-color="#EC6430"/>
<stop offset="0.1023" stop-color="#EC6333"/>
<stop offset="0.227" stop-color="#EC603D"/>
<stop offset="0.3633" stop-color="#EB5A4B"/>
<stop offset="0.5071" stop-color="#EA515C"/>
<stop offset="0.5185" stop-color="#EA505D"/>
<stop offset="0.607" stop-color="#EA4F5F"/>
<stop offset="0.7009" stop-color="#EA4C64"/>
<stop offset="0.7965" stop-color="#E9476C"/>
<stop offset="0.9851" stop-color="#E83A8D"/>
</linearGradient>
<linearGradient id="paint4_linear" x1="112.122" y1="9.29642" x2="112.122" y2="25.1924" gradientUnits="userSpaceOnUse">
<stop stop-color="#EC6430"/>
<stop offset="0.1023" stop-color="#EC6333"/>
<stop offset="0.227" stop-color="#EC603D"/>
<stop offset="0.3633" stop-color="#EB5A4B"/>
<stop offset="0.5071" stop-color="#EA515C"/>
<stop offset="0.5185" stop-color="#EA505D"/>
<stop offset="0.607" stop-color="#EA4F5F"/>
<stop offset="0.7009" stop-color="#EA4C64"/>
<stop offset="0.7965" stop-color="#E9476C"/>
<stop offset="0.9851" stop-color="#E83A8D"/>
</linearGradient>
<clipPath id="clip0">
<rect width="118.917" height="35" fill="white" transform="translate(0.920166 0.5)"/>
</clipPath>
</defs>
</svg>
