<svg xmlns="http://www.w3.org/2000/svg" viewBox="0 0 64 64">
  <g id="CHECK_ICON">
    <path fill="currentColor"
          d="M32,0A32,32,0,1,0,64,32,32,32,0,0,0,32,0Zm2.0873,41.5-5.4107,5.4106-.02.02L14.1751,32.4492l5.4306-5.4306,9.051,9.0509L46.2861,18.44l5.4305,5.4306Z"/>
  </g>

  <g id="X_ICON">
    <path fill="currentColor"
          d="M32,0A32,32,0,1,0,64,32,32,32,0,0,0,32,0ZM47.4649,42.3543l-5.4306,5.43L31.68,37.4305,21.3257,47.7848l-5.4306-5.43L26.25,32,15.8951,21.6456l5.4306-5.4305L31.68,26.5694,42.0343,16.2151l5.4306,5.4305L37.1106,32Z"/>
  </g>
</svg>
